<svg width="19" height="16" viewBox="0 0 19 16" fill="none" xmlns="http://www.w3.org/2000/svg">
<path d="M8.09027 0.817935C8.16033 0.887259 8.21604 0.969716 8.25421 1.06059C8.29238 1.15145 8.31227 1.24896 8.31274 1.34752C8.3132 1.44608 8.29423 1.54376 8.25692 1.63499C8.21961 1.72621 8.16468 1.80919 8.09528 1.87917L2.65084 7.37431L17.3404 7.30497C17.5393 7.30404 17.7304 7.38215 17.8717 7.52214C18.013 7.66213 18.093 7.85252 18.0939 8.05143C18.0948 8.25034 18.0167 8.44147 17.8767 8.58279C17.7367 8.7241 17.5464 8.80402 17.3474 8.80496L2.65792 8.87429L8.15399 14.3178C8.29538 14.4578 8.37534 14.6483 8.37628 14.8474C8.37722 15.0464 8.29906 15.2376 8.159 15.379C8.01893 15.5204 7.82843 15.6004 7.62941 15.6013C7.43039 15.6023 7.23915 15.5241 7.09776 15.384L0.315973 8.66597C0.245912 8.59664 0.190203 8.51419 0.152031 8.42332C0.113858 8.33245 0.0939709 8.23495 0.0935057 8.13639C0.0930405 8.03783 0.112007 7.94014 0.14932 7.84891C0.186633 7.75769 0.241561 7.67471 0.310964 7.60473L7.02903 0.822943C7.09835 0.752883 7.18081 0.697174 7.27168 0.659001C7.36255 0.620829 7.46005 0.600943 7.55861 0.600477C7.65717 0.600012 7.75486 0.618977 7.84608 0.65629C7.93731 0.693603 8.02029 0.748532 8.09027 0.817935Z" fill="black"/>
</svg>
