<svg width="32" height="32" viewBox="0 0 32 32" fill="none" xmlns="http://www.w3.org/2000/svg">
<path d="M25.3334 12.0002H21.8934L26.2801 7.61358C26.5312 7.36251 26.6722 7.02198 26.6722 6.66691C26.6722 6.31185 26.5312 5.97132 26.2801 5.72025C26.029 5.46918 25.6885 5.32812 25.3334 5.32812C24.9783 5.32812 24.6378 5.46918 24.3867 5.72025L20.0001 10.0936V6.66691C20.0001 6.31329 19.8596 5.97415 19.6096 5.72411C19.3595 5.47406 19.0204 5.33358 18.6667 5.33358C18.3131 5.33358 17.974 5.47406 17.7239 5.72411C17.4739 5.97415 17.3334 6.31329 17.3334 6.66691V13.3336C17.3334 13.6872 17.4739 14.0263 17.7239 14.2764C17.974 14.5264 18.3131 14.6669 18.6667 14.6669H25.3334C25.687 14.6669 26.0262 14.5264 26.2762 14.2764C26.5263 14.0263 26.6667 13.6872 26.6667 13.3336C26.6667 12.98 26.5263 12.6408 26.2762 12.3908C26.0262 12.1407 25.687 12.0002 25.3334 12.0002ZM13.3334 17.3336H6.66675C6.31313 17.3336 5.97399 17.4741 5.72394 17.7241C5.47389 17.9742 5.33341 18.3133 5.33341 18.6669C5.33341 19.0205 5.47389 19.3597 5.72394 19.6097C5.97399 19.8598 6.31313 20.0002 6.66675 20.0002H10.0934L5.72008 24.3869C5.59511 24.5109 5.49592 24.6583 5.42823 24.8208C5.36053 24.9833 5.32568 25.1576 5.32568 25.3336C5.32568 25.5096 5.36053 25.6839 5.42823 25.8463C5.49592 26.0088 5.59511 26.1563 5.72008 26.2802C5.84403 26.4052 5.9915 26.5044 6.15398 26.5721C6.31646 26.6398 6.49073 26.6746 6.66675 26.6746C6.84276 26.6746 7.01704 26.6398 7.17952 26.5721C7.342 26.5044 7.48946 26.4052 7.61341 26.2802L12.0001 21.8936V25.3336C12.0001 25.6872 12.1406 26.0263 12.3906 26.2764C12.6407 26.5264 12.9798 26.6669 13.3334 26.6669C13.687 26.6669 14.0262 26.5264 14.2762 26.2764C14.5263 26.0263 14.6667 25.6872 14.6667 25.3336V18.6669C14.6667 18.3133 14.5263 17.9742 14.2762 17.7241C14.0262 17.4741 13.687 17.3336 13.3334 17.3336Z" fill="black"/>
</svg>
