<svg width="24" height="24" viewBox="0 0 24 24" fill="none" xmlns="http://www.w3.org/2000/svg">
<rect width="24" height="24" rx="5" fill="black"/>
<path d="M21.7891 1.47988L22.3791 2.06988C23.1921 2.88388 23.0691 4.32688 22.1021 5.29288L9.93505 17.4599L5.99305 18.9019C5.49805 19.0839 5.01605 18.8479 4.91805 18.3769C4.88493 18.206 4.90053 18.0293 4.96305 17.8669L6.43305 13.8909L18.5661 1.75688C19.5331 0.790877 20.9761 0.665877 21.7891 1.47988ZM9.40405 2.68988C9.53537 2.68988 9.66541 2.71574 9.78674 2.766C9.90806 2.81625 10.0183 2.88991 10.1112 2.98277C10.204 3.07563 10.2777 3.18587 10.3279 3.30719C10.3782 3.42852 10.4041 3.55855 10.4041 3.68988C10.4041 3.8212 10.3782 3.95123 10.3279 4.07256C10.2777 4.19389 10.204 4.30413 10.1112 4.39698C10.0183 4.48984 9.90806 4.5635 9.78674 4.61376C9.66541 4.66401 9.53537 4.68988 9.40405 4.68988H5.40405C4.87362 4.68988 4.36491 4.90059 3.98984 5.27566C3.61477 5.65074 3.40405 6.15944 3.40405 6.68988V18.6899C3.40405 19.2203 3.61477 19.729 3.98984 20.1041C4.36491 20.4792 4.87362 20.6899 5.40405 20.6899H17.4041C17.9345 20.6899 18.4432 20.4792 18.8183 20.1041C19.1933 19.729 19.4041 19.2203 19.4041 18.6899V14.6899C19.4041 14.4247 19.5094 14.1703 19.6969 13.9828C19.8845 13.7952 20.1388 13.6899 20.4041 13.6899C20.6693 13.6899 20.9236 13.7952 21.1112 13.9828C21.2987 14.1703 21.4041 14.4247 21.4041 14.6899V18.6899C21.4041 19.7507 20.9826 20.7682 20.2325 21.5183C19.4823 22.2684 18.4649 22.6899 17.4041 22.6899H5.40405C4.34319 22.6899 3.32577 22.2684 2.57563 21.5183C1.82548 20.7682 1.40405 19.7507 1.40405 18.6899V6.68988C1.40405 5.62901 1.82548 4.6116 2.57563 3.86145C3.32577 3.1113 4.34319 2.68988 5.40405 2.68988H9.40405Z" fill="white"/>
</svg>
