<svg width="256" height="256" viewBox="0 0 256 256" fill="none" xmlns="http://www.w3.org/2000/svg">
<path d="M72 128C72.0572 148.985 67.2082 169.692 57.84 188.47C57.3928 189.444 56.7547 190.317 55.9634 191.04C55.1721 191.762 54.2438 192.318 53.2336 192.674C52.2234 193.031 51.1518 193.181 50.0825 193.116C49.0131 193.051 47.9678 192.771 47.0085 192.294C46.0492 191.817 45.1955 191.152 44.498 190.339C43.8005 189.526 43.2734 188.581 42.9481 187.56C42.6227 186.54 42.5057 185.464 42.6039 184.397C42.7022 183.33 43.0137 182.294 43.52 181.35C51.78 164.782 56.0536 146.513 56 128C55.9812 117.204 58.3994 106.544 63.0744 96.813C67.7494 87.0821 74.5605 78.532 83 71.8C83.8201 71.1434 84.7615 70.6547 85.7704 70.362C86.7794 70.0692 87.8361 69.978 88.8803 70.0936C89.9245 70.2092 90.9357 70.5293 91.8562 71.0357C92.7767 71.5421 93.5884 72.2249 94.245 73.045C94.9016 73.8651 95.3902 74.8065 95.683 75.8155C95.9758 76.8244 96.067 77.8812 95.9514 78.9253C95.8358 79.9695 95.5156 80.9807 95.0092 81.9012C94.5028 82.8217 93.8201 83.6334 93 84.29C86.4344 89.5244 81.1358 96.174 77.4996 103.743C73.8633 111.311 71.9834 119.603 72 128ZM128 120C125.878 120 123.843 120.843 122.343 122.343C120.843 123.843 120 125.878 120 128C119.998 159.168 112.085 189.825 97 217.1C95.9709 218.957 95.7215 221.146 96.3067 223.186C96.8918 225.227 98.2635 226.951 100.12 227.98C101.977 229.009 104.166 229.258 106.206 228.673C108.247 228.088 109.971 226.717 111 224.86C127.396 195.209 135.998 161.882 136 128C136 125.878 135.157 123.843 133.657 122.343C132.157 120.843 130.122 120 128 120ZM128 88C117.391 88 107.217 92.2143 99.7157 99.7157C92.2143 107.217 88 117.391 88 128C88 130.122 88.8428 132.157 90.3431 133.657C91.8434 135.157 93.8783 136 96 136C98.1217 136 100.157 135.157 101.657 133.657C103.157 132.157 104 130.122 104 128C104 121.635 106.529 115.53 111.029 111.029C115.53 106.529 121.635 104 128 104C134.365 104 140.47 106.529 144.971 111.029C149.471 115.53 152 121.635 152 128C152.083 159.81 145.076 191.238 131.49 220C131.042 220.953 130.785 221.984 130.735 223.036C130.686 224.088 130.844 225.139 131.2 226.13C131.557 227.121 132.105 228.032 132.814 228.811C133.522 229.59 134.377 230.222 135.33 230.67C136.283 231.118 137.314 231.375 138.366 231.425C139.418 231.474 140.469 231.316 141.46 230.96C142.451 230.603 143.362 230.055 144.141 229.346C144.92 228.638 145.552 227.783 146 226.83C160.583 195.93 168.099 162.169 168 128C168 117.391 163.786 107.217 156.284 99.7157C148.783 92.2143 138.609 88 128 88ZM128 24C100.426 24.0291 73.9905 34.9956 54.493 54.4931C34.9956 73.9905 24.0291 100.426 24 128C24.0148 137.99 22.3239 147.909 19 157.33C18.2932 159.331 18.4102 161.531 19.3254 163.446C20.2406 165.36 21.8789 166.833 23.88 167.54C25.881 168.247 28.0809 168.13 29.9957 167.215C31.9104 166.299 33.3832 164.661 34.09 162.66C38.0147 151.526 40.0133 139.805 40 128C40 104.661 49.2714 82.2778 65.7746 65.7746C82.2778 49.2714 104.661 40 128 40C151.339 40 173.722 49.2714 190.225 65.7746C206.729 82.2778 216 104.661 216 128C216.004 146.278 214.232 164.514 210.71 182.45C210.506 183.481 210.508 184.542 210.714 185.572C210.92 186.603 211.328 187.582 211.913 188.455C212.498 189.328 213.249 190.077 214.124 190.66C214.998 191.242 215.979 191.647 217.01 191.85C217.521 191.949 218.04 191.999 218.56 192C220.411 191.998 222.205 191.354 223.634 190.178C225.064 189.002 226.041 187.366 226.4 185.55C230.125 166.593 232.001 147.319 232 128C231.968 100.427 221.001 73.9929 201.504 54.496C182.007 34.9991 155.573 24.0318 128 24ZM94.4 152.17C92.3252 151.757 90.1713 152.183 88.4097 153.354C86.6481 154.526 85.4221 156.347 85 158.42C81.7539 174.396 75.942 189.742 67.79 203.86C66.7291 205.698 66.4418 207.882 66.9913 209.932C67.5408 211.982 68.882 213.729 70.72 214.79C72.5579 215.851 74.742 216.138 76.7918 215.589C78.8416 215.039 80.5891 213.698 81.65 211.86C90.6589 196.248 97.0756 179.277 100.65 161.61C100.86 160.58 100.865 159.518 100.665 158.486C100.464 157.454 100.062 156.471 99.482 155.594C98.9015 154.718 98.1539 153.964 97.2819 153.376C96.4098 152.789 95.4305 152.379 94.4 152.17ZM128 56C124.991 56.0006 121.986 56.1877 119 56.56C116.934 56.8701 115.072 57.976 113.81 59.6413C112.549 61.3065 111.989 63.3991 112.25 65.4716C112.512 67.5442 113.573 69.4324 115.208 70.7327C116.843 72.0329 118.922 72.6421 121 72.43C128.881 71.45 136.881 72.1551 144.469 74.4987C152.057 76.8423 159.061 80.7709 165.017 86.0245C170.973 91.278 175.745 97.7367 179.018 104.973C182.29 112.209 183.988 120.058 184 128C183.998 138.363 183.356 148.716 182.08 159C181.94 160.046 182.008 161.109 182.28 162.129C182.552 163.148 183.024 164.104 183.667 164.94C184.31 165.777 185.112 166.478 186.028 167.003C186.943 167.528 187.953 167.867 189 168C189.332 168.04 189.666 168.06 190 168.06C191.946 168.056 193.823 167.343 195.281 166.054C196.738 164.766 197.677 162.99 197.92 161.06C199.269 150.112 199.937 139.091 199.92 128.06C199.915 108.974 192.34 90.6699 178.858 77.1611C165.375 63.6524 147.086 56.0424 128 56ZM185.93 184.25C184.912 183.987 183.853 183.927 182.812 184.073C181.771 184.22 180.769 184.57 179.863 185.104C178.958 185.638 178.166 186.346 177.534 187.186C176.902 188.026 176.442 188.982 176.18 190C174.72 195.69 173.03 201.4 171.18 207C170.503 209.006 170.649 211.199 171.586 213.098C172.524 214.997 174.176 216.447 176.18 217.13C177.001 217.409 177.863 217.551 178.73 217.55C180.406 217.549 182.04 217.021 183.4 216.041C184.76 215.062 185.778 213.679 186.31 212.09C188.31 206.17 190.1 200.09 191.66 194.04C191.928 193.022 191.993 191.962 191.85 190.919C191.708 189.876 191.361 188.871 190.83 187.963C190.298 187.054 189.593 186.26 188.754 185.624C187.915 184.989 186.959 184.525 185.94 184.26L185.93 184.25Z" fill="black"/>
</svg>
