<svg width="32" height="32" viewBox="0 0 32 32" fill="none" xmlns="http://www.w3.org/2000/svg">
<path d="M29.0741 13.389H28.0001V13.3337H16.0001V18.667H23.5354C22.4361 21.7717 19.4821 24.0003 16.0001 24.0003C11.5821 24.0003 8.00008 20.4183 8.00008 16.0003C8.00008 11.5823 11.5821 8.00033 16.0001 8.00033C18.0394 8.00033 19.8947 8.76966 21.3074 10.0263L25.0787 6.25499C22.6974 4.03566 19.5121 2.66699 16.0001 2.66699C8.63675 2.66699 2.66675 8.63699 2.66675 16.0003C2.66675 23.3637 8.63675 29.3337 16.0001 29.3337C23.3634 29.3337 29.3334 23.3637 29.3334 16.0003C29.3334 15.1063 29.2414 14.2337 29.0741 13.389Z" fill="#FFC107"/>
<path d="M4.2041 9.79433L8.58477 13.007C9.7701 10.0723 12.6408 8.00033 16.0001 8.00033C18.0394 8.00033 19.8948 8.76966 21.3074 10.0263L25.0788 6.25499C22.6974 4.03566 19.5121 2.66699 16.0001 2.66699C10.8788 2.66699 6.43743 5.55833 4.2041 9.79433Z" fill="#FF3D00"/>
<path d="M15.9999 29.3338C19.4439 29.3338 22.5732 28.0158 24.9392 25.8725L20.8125 22.3805C19.4289 23.4327 17.7382 24.0018 15.9999 24.0005C12.5319 24.0005 9.58722 21.7891 8.47788 18.7031L4.12988 22.0531C6.33655 26.3711 10.8179 29.3338 15.9999 29.3338Z" fill="#4CAF50"/>
<path d="M29.074 13.3883H28V13.333H16V18.6663H23.5353C23.0095 20.1439 22.0622 21.4351 20.8107 22.3803L20.8127 22.379L24.9393 25.871C24.6473 26.1363 29.3333 22.6663 29.3333 15.9997C29.3333 15.1057 29.2413 14.233 29.074 13.3883Z" fill="#1976D2"/>
</svg>
