<svg width="32" height="32" viewBox="0 0 32 32" fill="none" xmlns="http://www.w3.org/2000/svg">
<g clip-path="url(#clip0_979_225)">
<path d="M15.9998 2.66699C23.3638 2.66699 29.3332 8.63633 29.3332 16.0003C29.3332 23.3643 23.3638 29.3337 15.9998 29.3337C8.63584 29.3337 2.6665 23.3643 2.6665 16.0003C2.6665 8.63633 8.63584 2.66699 15.9998 2.66699ZM15.9998 5.33366C13.1709 5.33366 10.4578 6.45747 8.45736 8.45785C6.45698 10.4582 5.33317 13.1713 5.33317 16.0003C5.33317 18.8293 6.45698 21.5424 8.45736 23.5428C10.4578 25.5432 13.1709 26.667 15.9998 26.667C18.8288 26.667 21.5419 25.5432 23.5423 23.5428C25.5427 21.5424 26.6665 18.8293 26.6665 16.0003C26.6665 13.1713 25.5427 10.4582 23.5423 8.45785C21.5419 6.45747 18.8288 5.33366 15.9998 5.33366ZM9.99984 14.0003C10.5303 14.0003 11.039 14.211 11.4141 14.5861C11.7891 14.9612 11.9998 15.4699 11.9998 16.0003C11.9998 16.5308 11.7891 17.0395 11.4141 17.4145C11.039 17.7896 10.5303 18.0003 9.99984 18.0003C9.4694 18.0003 8.9607 17.7896 8.58562 17.4145C8.21055 17.0395 7.99984 16.5308 7.99984 16.0003C7.99984 15.4699 8.21055 14.9612 8.58562 14.5861C8.9607 14.211 9.4694 14.0003 9.99984 14.0003ZM15.9998 14.0003C16.5303 14.0003 17.039 14.211 17.4141 14.5861C17.7891 14.9612 17.9998 15.4699 17.9998 16.0003C17.9998 16.5308 17.7891 17.0395 17.4141 17.4145C17.039 17.7896 16.5303 18.0003 15.9998 18.0003C15.4694 18.0003 14.9607 17.7896 14.5856 17.4145C14.2106 17.0395 13.9998 16.5308 13.9998 16.0003C13.9998 15.4699 14.2106 14.9612 14.5856 14.5861C14.9607 14.211 15.4694 14.0003 15.9998 14.0003ZM21.9998 14.0003C22.5303 14.0003 23.039 14.211 23.414 14.5861C23.7891 14.9612 23.9998 15.4699 23.9998 16.0003C23.9998 16.5308 23.7891 17.0395 23.414 17.4145C23.039 17.7896 22.5303 18.0003 21.9998 18.0003C21.4694 18.0003 20.9607 17.7896 20.5856 17.4145C20.2106 17.0395 19.9998 16.5308 19.9998 16.0003C19.9998 15.4699 20.2106 14.9612 20.5856 14.5861C20.9607 14.211 21.4694 14.0003 21.9998 14.0003Z" fill="black"/>
</g>
<defs>
<clipPath id="clip0_979_225">
<rect width="32" height="32" fill="white"/>
</clipPath>
</defs>
</svg>
