<svg width="180" height="172" viewBox="0 0 180 172" fill="none" xmlns="http://www.w3.org/2000/svg">
<g clip-path="url(#clip0_1826_32)">
<path d="M89.9046 0C40.2372 0.0516 0 38.5383 0 86C0 133.496 40.2948 172 90 172C139.705 172 180 133.496 180 86C179.97 75.2559 177.833 64.6123 173.7 54.6203C171.358 57.1625 169.241 59.3469 166.743 61.2423C169.082 67.8516 170.47 74.7337 170.87 81.7H142.295C142.272 81.0137 142.229 80.336 142.196 79.6532C138.569 80.9965 136.053 79.605 133.119 78.0054C133.198 79.2278 133.261 80.4593 133.306 81.7H94.5V53.0964H104.245C102.059 50.3252 100.013 47.4552 98.1144 44.4964H94.5V38.5658C90.0954 30.3752 90.6534 20.953 94.5 12.8123V9.77304C94.9896 9.85216 95.4756 9.95708 95.9634 10.0689C97.9385 6.6907 100.474 3.64109 103.471 1.03888C99.0144 0.370451 94.5113 0.023179 90 0L89.9046 0ZM85.5 10.1119V44.4947H55.35C57.1284 39.6391 59.184 35.1568 61.4844 31.1647C68.202 19.5065 76.6278 12.2137 85.5 10.1119ZM64.764 12.439C60.5808 16.4845 56.826 21.4174 53.5986 27.016C50.5746 32.262 47.9736 38.1393 45.837 44.4947H21.618C31.581 29.5204 46.773 18.0583 64.764 12.439ZM16.6608 53.0964H43.3152C41.0742 61.975 39.7008 71.6036 39.3498 81.7017H9.1296C9.68911 71.7927 12.2463 62.0786 16.6608 53.0964ZM52.614 53.0981H85.5V81.7H48.3606C48.7422 71.4918 50.238 61.8288 52.614 53.0981ZM9.1296 90.3H39.3012C39.5334 100.372 40.7772 110.001 42.8904 118.904H16.6608C12.2463 109.921 9.68911 100.209 9.1296 90.3ZM48.3012 90.3H85.5V118.904H52.164C49.923 110.132 48.5532 100.474 48.3012 90.3ZM94.5 90.3H133.366C133.114 100.474 131.742 110.132 129.501 118.904H94.5V90.3ZM142.337 90.3H170.87C170.311 100.209 167.754 109.921 163.339 118.904H138.762C140.868 109.999 142.105 100.371 142.337 90.3ZM21.618 127.504H45.2628C47.4984 134.53 50.3028 140.988 53.5986 146.707C56.187 151.197 59.121 155.254 62.3358 158.777C45.4032 152.911 31.131 141.8 21.618 127.504ZM54.7272 127.505H85.5V163.278C84.9456 163.249 84.3984 163.195 83.8476 163.157C75.5856 160.577 67.7844 153.491 61.4844 142.56C58.914 138.099 56.6388 133.037 54.7272 127.507M94.5 127.507H126.938C125.03 133.039 122.753 138.101 120.182 142.562C114.012 153.269 106.402 160.292 98.3286 163.001C97.0602 163.121 95.784 163.214 94.5 163.28V127.507ZM136.395 127.507H158.382C149.28 141.192 135.916 151.804 120.172 157.85C123.059 154.547 125.707 150.808 128.066 146.711C131.362 140.992 134.165 134.532 136.395 127.507Z" fill="black"/>
<path d="M125.69 0C130.536 0 135.151 2.58172 139.298 4.91404C143.451 2.58172 148.066 0 152.91 0C167.823 0 180 11.6358 180 25.886V25.9445C179.816 37.9965 169.657 49.1645 160.182 57.9743C150.707 66.7807 141.303 73.045 141.303 73.045C140.616 73.5027 139.798 73.7457 138.96 73.7405C138.123 73.7352 137.308 73.482 136.627 73.0157C136.627 73.0157 127.821 66.9974 118.735 58.3183C109.647 49.6375 99.8495 38.4128 98.6219 26.2575C98.6083 26.1347 98.6017 26.0112 98.6021 25.8877C98.6003 11.6358 110.777 0 125.69 0Z" fill="black"/>
</g>
<defs>
<clipPath id="clip0_1826_32">
<rect width="180" height="172" fill="white"/>
</clipPath>
</defs>
</svg>
