<svg width="32" height="32" viewBox="0 0 32 32" fill="none" xmlns="http://www.w3.org/2000/svg">
<g clip-path="url(#clip0_757_3928)">
<path d="M27.1455 2.49077C25.4038 0.807909 22.2553 0.0864258 18.2274 0.0864258H6.53741C6.13889 0.0864383 5.75345 0.20696 5.45038 0.426322C5.14731 0.645684 4.9465 0.949498 4.88404 1.28314L0.0165375 27.4518C-0.0802125 27.9679 0.391163 28.4351 1.00816 28.4351H8.22516L10.0377 18.6899L9.98141 18.995C10.1105 18.3062 10.8055 17.7981 11.6285 17.7981H15.058C21.7953 17.7981 27.0707 15.4784 28.6117 8.76807C28.6574 8.5696 28.697 8.37644 28.7313 8.18772C28.5368 8.10041 28.5368 8.10041 28.7313 8.18772C29.1902 5.70751 28.7282 4.01925 27.1455 2.49077Z" fill="#27346A"/>
<path d="M12.7992 7.29427C12.9965 7.21463 13.2123 7.17336 13.4308 7.17347H22.5955C23.6808 7.17347 24.693 7.23334 25.618 7.35954C25.8769 7.39452 26.1344 7.43629 26.3902 7.48478C26.7527 7.5526 27.1111 7.6356 27.4639 7.73347C27.9187 7.86221 28.3422 8.01215 28.7314 8.18772C29.1902 5.70656 28.7282 4.01925 27.1455 2.49077C25.4028 0.807909 22.2553 0.0864258 18.2274 0.0864258H6.53641C5.71329 0.0864258 5.01304 0.594399 4.88404 1.28314L0.0165382 27.4509C-0.0802118 27.9678 0.391163 28.4344 1.00716 28.4344H8.22516L11.9855 8.22036C12.0225 8.02167 12.1159 7.83358 12.2576 7.67225C12.3993 7.51093 12.5852 7.38122 12.7992 7.29427Z" fill="#27346A"/>
<path d="M28.6128 8.76809C27.0718 15.4775 21.7965 17.7981 15.0591 17.7981H11.6286C10.8056 17.7981 10.1105 18.3062 9.98264 18.9951L7.72776 31.1121C7.64351 31.5637 8.05551 31.973 8.59451 31.973H14.6783C15.0268 31.9729 15.3638 31.8674 15.6287 31.6755C15.8937 31.4836 16.0692 31.2179 16.1236 30.9261L16.1829 30.6633L17.3295 24.5032L17.4034 24.1627C17.4578 23.871 17.6333 23.6052 17.8982 23.4133C18.1632 23.2214 18.5002 23.116 18.8486 23.1159H19.7591C25.6525 23.1159 30.2671 21.0863 31.6156 15.2165C32.1785 12.7635 31.8873 10.7155 30.3983 9.27702C29.9466 8.84131 29.3858 8.48147 28.7324 8.18774C28.697 8.37741 28.6586 8.56962 28.6128 8.76809Z" fill="#2790C3"/>
<path d="M27.1185 7.64264C26.8783 7.58317 26.6357 7.53051 26.3913 7.48476C26.1354 7.43706 25.8779 7.39558 25.6192 7.36036C24.6932 7.23332 23.6817 7.17334 22.5954 7.17334H13.4318C13.2131 7.17292 12.9971 7.21455 12.8002 7.29509C12.586 7.38177 12.3999 7.51141 12.2581 7.67278C12.1163 7.83415 12.0231 8.02238 11.9864 8.22118L10.0387 18.6898L9.98242 18.995C10.1105 18.3062 10.8055 17.7981 11.6287 17.7981H15.0592C21.7964 17.7981 27.0717 15.4784 28.6127 8.76805C28.6585 8.56958 28.697 8.37726 28.7324 8.1877C28.3422 8.01308 27.9198 7.86219 27.4649 7.7343C27.3501 7.70204 27.2347 7.67149 27.1187 7.64264" fill="#1F264F"/>
</g>
<defs>
<clipPath id="clip0_757_3928">
<rect width="32" height="32" fill="white"/>
</clipPath>
</defs>
</svg>
