<svg width="269" height="210" viewBox="0 0 269 210" fill="none" xmlns="http://www.w3.org/2000/svg">
<g clip-path="url(#clip0_979_2164)">
<mask id="mask0_979_2164" style="mask-type:luminance" maskUnits="userSpaceOnUse" x="0" y="0" width="269" height="210">
<path d="M0.200653 0H269V209.896H0.200653V0Z" fill="white"/>
</mask>
<g mask="url(#mask0_979_2164)">
<path d="M14.3843 126.523C23.884 159.65 41.7442 188.673 66.552 201.428C69.7785 203.084 73.0732 204.489 76.4195 205.636C94.1187 211.714 113.482 209.6 129.797 198.526C136.722 193.822 143.036 187.606 149.986 182.97C156.936 178.333 164.872 175.299 172.436 177.587C178.949 179.558 184.444 185.205 189.976 190.235C203.019 202.095 218.701 211.48 234.145 207.407C241.251 205.535 248.249 200.35 251.55 191.682C258.844 172.52 245.087 149.739 247.873 128.547C249.656 114.984 257.799 104.828 262.861 92.8584C271.525 72.3848 270.501 45.189 260.343 26.0047C250.185 6.82042 231.432 -3.35585 214.239 0.996159C193.272 6.30527 177.421 30.2018 157.034 38.6581C144.284 43.9419 130.441 42.3655 118.264 35.4068C98.5895 24.1609 71.5599 6.91332 49.4191 9.7227C37.6454 11.2175 26.0975 18.255 18.3264 30.2722C8.50275 45.4423 5.55774 66.98 7.19641 86.9835C8.32089 100.525 10.7371 113.814 14.3843 126.523Z" fill="url(#paint0_linear_979_2164)"/>
<path d="M8.06384 152.726C8.50067 152.726 8.93544 152.655 9.35973 152.515C10.7016 152.071 11.8658 150.954 12.6162 149.393C13.3665 147.831 13.6466 145.942 13.4 144.112C13.1512 142.282 12.3925 140.648 11.2806 139.545C10.1686 138.442 8.78493 137.951 7.41381 138.175C6.04268 138.398 4.78653 139.318 3.9024 140.747C3.01618 142.176 2.57096 144.005 2.65248 145.862C2.73609 147.72 3.34225 149.464 4.3476 150.74C5.35295 152.015 6.68226 152.726 8.06384 152.726ZM8.07848 141.416C8.79749 141.419 9.4914 141.776 10.0286 142.421C10.5657 143.066 10.9085 143.953 10.9942 144.916C11.0778 145.878 10.8981 146.849 10.4884 147.645C10.0787 148.44 9.46631 149.007 8.76612 149.236C8.0074 149.484 7.2069 149.315 6.54015 148.768C5.87339 148.221 5.39682 147.34 5.21289 146.318C5.02687 145.296 5.15229 144.218 5.55986 143.32C5.96535 142.423 6.61957 141.779 7.37829 141.531C7.60821 141.454 7.8423 141.414 8.07848 141.413V141.416Z" fill="black"/>
<path d="M13.0111 160.469C12.7039 158.757 13.4835 157.033 14.7564 156.618C16.0272 156.203 17.3063 157.254 17.6157 158.966C17.9229 160.678 17.1433 162.402 15.8725 162.817C14.5996 163.232 13.3205 162.181 13.0111 160.469Z" fill="black"/>
<path d="M257.465 152.031C258.901 151.988 260.267 151.185 261.266 149.795C262.265 148.404 262.816 146.539 262.8 144.605C262.785 142.67 262.203 140.822 261.182 139.462C260.161 138.101 258.782 137.338 257.346 137.338C255.909 137.338 254.53 138.101 253.509 139.462C252.488 140.822 251.906 142.67 251.891 144.605C251.875 146.539 252.426 148.404 253.425 149.795C254.424 151.185 255.79 151.988 257.226 152.031H257.465ZM257.465 140.723H257.588C258.364 140.745 259.102 141.18 259.641 141.931C260.181 142.682 260.479 143.689 260.47 144.734C260.462 145.78 260.147 146.778 259.596 147.513C259.044 148.248 258.299 148.66 257.523 148.66C256.747 148.66 256.003 148.248 255.451 147.513C254.899 146.778 254.585 145.78 254.576 144.734C254.568 143.689 254.866 142.682 255.405 141.931C255.945 141.18 256.683 140.745 257.458 140.723H257.465Z" fill="black"/>
<path d="M261.353 164.354C260.046 164.278 259.032 162.79 259.089 161.03C259.145 159.271 260.25 157.906 261.557 157.982C262.863 158.058 263.877 159.546 263.821 161.306C263.764 163.065 262.659 164.43 261.353 164.354Z" fill="black"/>
<path d="M120.793 33.2897C122.095 33.2914 123.354 32.6657 124.343 31.525C125.332 30.3847 125.985 28.8051 126.184 27.0724C126.382 25.3397 126.114 23.5683 125.427 22.0789C124.74 20.5895 123.68 19.4806 122.439 18.9527C121.198 18.4249 119.857 18.5131 118.659 19.2014C117.462 19.8897 116.487 21.1326 115.912 22.7051C115.336 24.2776 115.197 26.0757 115.52 27.7741C115.844 29.4723 116.608 30.9586 117.675 31.9639C118.589 32.8255 119.677 33.2883 120.793 33.2897ZM120.81 21.9847C121.571 21.9837 122.302 22.3782 122.852 23.0859C123.403 23.7937 123.729 24.7601 123.763 25.7838C123.797 26.8074 123.537 27.8093 123.036 28.5808C122.535 29.3521 121.832 29.8335 121.075 29.9241C120.317 30.015 119.562 29.7088 118.968 29.0686C118.374 28.4288 117.986 27.5045 117.885 26.4888C117.785 25.4732 117.979 24.4444 118.427 23.6168C118.876 22.7892 119.545 22.2267 120.294 22.0466C120.464 22.0057 120.637 21.985 120.81 21.9847Z" fill="black"/>
<path d="M131.911 32.8889C130.841 31.8775 130.581 29.8887 131.332 28.4463C132.083 27.0042 133.56 26.6549 134.631 27.6662C135.702 28.6777 135.961 30.6665 135.21 32.1089C134.459 33.551 132.982 33.9004 131.911 32.8889Z" fill="black"/>
<path d="M0.209053 71.124C0.209053 68.0289 1.12244 65.0601 2.74648 62.8715C4.3726 60.6825 6.57559 59.4529 8.87473 59.4529C9.06702 59.4529 9.25722 59.4529 9.44533 59.4783C9.43279 59.2249 9.42653 58.9687 9.42653 58.7098C9.42653 57.0511 9.6899 55.4114 10.1978 53.9003C10.7057 52.3889 11.4456 51.0408 12.3715 49.9458C13.2974 48.8507 14.3843 48.0338 15.5632 47.5496C16.7399 47.0652 17.9814 46.9247 19.2021 47.1372C20.4248 47.35 21.5974 47.9108 22.6466 48.7823C23.6938 49.6541 24.5925 50.8167 25.2802 52.1924C25.9678 53.5684 26.4298 55.126 26.6367 56.7612C26.8415 58.3967 26.7872 60.0725 26.4737 61.6768C27.5208 60.6541 28.7247 59.9599 29.9976 59.6455C31.2705 59.331 32.5789 59.4045 33.8267 59.8602C35.0766 60.3157 36.2325 61.1422 37.2149 62.2789C38.1951 63.4156 38.9726 64.8335 39.4952 66.4285C40.0156 68.0238 40.2643 69.7556 40.2225 71.4972C40.1807 73.2389 39.8505 74.9456 39.2548 76.493C38.6612 78.0402 37.8168 79.3883 36.7843 80.4383C35.7517 81.4886 34.5583 82.214 33.2896 82.5614C32.7712 84.4103 31.9143 86.052 30.796 87.3325C29.6799 88.6128 28.338 89.4902 26.9021 89.8824C25.4641 90.2745 23.9739 90.1686 22.5756 89.5747C21.1773 88.9804 19.9127 87.9175 18.9011 86.4855C17.8665 87.5372 16.6709 88.2629 15.4001 88.6091C14.1293 88.9557 12.8188 88.914 11.5626 88.4872C10.3044 88.0605 9.13599 87.2593 8.139 86.1435C7.14201 85.0273 6.34568 83.6243 5.80434 82.0378C4.1594 81.198 2.74438 79.7044 1.7432 77.755C0.744118 75.8056 0.209053 73.4931 0.209053 71.124Z" fill="white"/>
<path d="M228.985 43.0698C228.984 41.5364 229.207 40.0177 229.642 38.6007C230.076 37.1836 230.715 35.8957 231.519 34.8108C232.324 33.7259 233.279 32.8651 234.331 32.2779C235.382 31.6904 236.51 31.3877 237.648 31.3875C237.84 31.3875 238.031 31.3875 238.219 31.4128C238.206 31.1594 238.2 30.9033 238.2 30.6443C238.2 28.9857 238.463 27.3459 238.971 25.8347C239.479 24.3234 240.22 22.9754 241.145 21.8803C242.07 20.7852 243.158 19.9683 244.336 19.484C245.514 18.9997 246.755 18.8592 247.976 19.0718C249.198 19.2844 250.372 19.8453 251.419 20.7169C252.467 21.5886 253.365 22.7511 254.053 24.127C254.741 25.5028 255.204 27.0604 255.409 28.6957C255.615 30.3313 255.56 32.0071 255.247 33.6113C256.294 32.5884 257.499 31.8942 258.771 31.58C260.044 31.2656 261.352 31.339 262.601 31.7945C263.85 32.2503 265.007 33.0768 265.987 34.2135C266.968 35.3502 267.747 36.7681 268.268 38.3631C268.788 39.9583 269.037 41.6901 268.996 43.4318C268.955 45.1731 268.624 46.8802 268.029 48.4273C267.434 49.9747 266.589 51.3228 265.557 52.3728C264.525 53.4228 263.331 54.1485 262.063 54.4959C261.545 56.3431 260.687 57.9832 259.57 59.2623C258.454 60.5417 257.114 61.4183 255.677 61.8104C254.24 62.2026 252.753 62.097 251.354 61.5042C249.956 60.9113 248.692 59.8501 247.681 58.42C246.646 59.4717 245.45 60.1974 244.18 60.5437C242.91 60.8902 241.598 60.8486 240.341 60.4215C239.085 59.9948 237.915 59.1939 236.919 58.0777C235.922 56.9616 235.125 55.5589 234.584 53.9723C232.94 53.1343 231.524 51.6426 230.524 49.6955C229.524 47.7483 228.987 45.4375 228.985 43.0698Z" fill="white"/>
<path d="M69.5638 209.136H194.24V205.477H69.5638C69.2035 205.477 68.858 205.669 68.6032 206.012C68.3484 206.355 68.2053 206.821 68.2053 207.306C68.2053 207.792 68.3484 208.257 68.6032 208.6C68.858 208.943 69.2035 209.136 69.5638 209.136Z" fill="#426572"/>
<path d="M199.817 209.136H207.44C207.8 209.136 208.145 208.943 208.4 208.6C208.655 208.257 208.798 207.792 208.798 207.306C208.798 206.821 208.655 206.355 208.4 206.012C208.145 205.669 207.8 205.477 207.44 205.477H199.817C199.456 205.477 199.111 205.669 198.856 206.012C198.601 206.355 198.458 206.821 198.458 207.306C198.458 207.792 198.601 208.257 198.856 208.6C199.111 208.943 199.456 209.136 199.817 209.136Z" fill="#426572"/>
<path d="M212.387 209.136H214.815C215.176 209.136 215.521 208.943 215.776 208.6C216.031 208.257 216.174 207.792 216.174 207.306C216.174 206.821 216.031 206.355 215.776 206.012C215.521 205.669 215.176 205.477 214.815 205.477H212.387C212.026 205.477 211.681 205.669 211.426 206.012C211.171 206.355 211.028 206.821 211.028 207.306C211.028 207.792 211.171 208.257 211.426 208.6C211.681 208.943 212.026 209.136 212.387 209.136Z" fill="#426572"/>
<path d="M25.8468 209.136H64.1672V205.477H25.8468C25.4873 205.477 25.1403 205.669 24.8853 206.012C24.6303 206.355 24.4882 206.821 24.4882 207.306C24.4882 207.792 24.6303 208.257 24.8853 208.6C25.1403 208.943 25.4873 209.136 25.8468 209.136Z" fill="black"/>
<path d="M221.763 209.136H260.086V205.477H221.763C221.403 205.477 221.057 205.669 220.802 206.012C220.548 206.355 220.405 206.821 220.405 207.306C220.405 207.792 220.548 208.257 220.802 208.6C221.057 208.943 221.403 209.136 221.763 209.136Z" fill="black"/>
<path d="M209.619 66.3105H70.0362C67.5169 66.3105 65.1007 67.6578 63.3189 70.0565C61.5373 72.4554 60.5357 75.7087 60.5344 79.102V200.784H219.121V79.102C219.12 75.7087 218.118 72.4554 216.337 70.0565C214.555 67.6578 212.139 66.3105 209.619 66.3105Z" fill="white"/>
<path d="M66.0463 75.6416H212.98V188.693H66.0463V75.6416Z" fill="black"/>
<path d="M214.082 188.482H65.4212C65.4212 189.38 65.6852 190.241 66.1551 190.877C66.6252 191.513 67.2631 191.873 67.9294 191.877H211.563C212.232 191.877 212.873 191.52 213.346 190.883C213.819 190.246 214.084 189.383 214.084 188.482H214.082Z" fill="white"/>
<g opacity="0.5">
<path opacity="0.5" d="M169.073 75.2197L191.042 189.329H202.105L180.136 75.2197H169.073Z" fill="#A7BCD5"/>
<path opacity="0.5" d="M140.875 75.2197L162.842 189.329H186.043L164.073 75.2197H140.875Z" fill="#A7BCD5"/>
</g>
<path d="M59.2804 202.472H220.375V73.646C220.373 71.2533 219.666 68.9596 218.41 67.2675C217.154 65.5757 215.451 64.6239 213.674 64.6211H65.9814C64.205 64.6239 62.5017 65.5757 61.2455 67.2675C59.9894 68.9596 59.2825 71.2533 59.2804 73.646V202.472ZM217.867 199.094H61.7886V73.646C61.7898 72.1487 62.2319 70.7133 63.018 69.6546C63.8039 68.5959 64.8698 68.0005 65.9814 67.9991H213.674C214.786 68.0005 215.852 68.5959 216.638 69.6546C217.424 70.7133 217.866 72.1487 217.867 73.646V199.094Z" fill="black"/>
<path d="M239.122 196.756H36.2805V197.654C36.2805 200.566 37.1396 203.358 38.6675 205.417C40.1974 207.476 42.2708 208.632 44.432 208.632H230.97C233.132 208.632 235.206 207.476 236.734 205.417C238.263 203.358 239.122 200.566 239.122 197.654V196.756Z" fill="#EBF0F9"/>
<path opacity="0.5" d="M37.3195 202.481C37.7647 204.043 38.5526 205.386 39.5768 206.333C40.601 207.28 41.8154 207.786 43.0569 207.785H233.61C234.852 207.785 236.064 207.278 237.088 206.331C238.111 205.385 238.898 204.042 239.343 202.481H37.3195Z" fill="white"/>
<path d="M45.3789 209.895H231.917C234.411 209.891 236.801 208.556 238.565 206.181C240.328 203.806 241.32 200.586 241.323 197.228V194.641H35.9733V197.228C35.9754 200.586 36.9682 203.806 38.7302 206.181C40.4943 208.556 42.8854 209.891 45.3789 209.895ZM238.789 198.019C238.642 200.337 237.854 202.496 236.582 204.07C235.309 205.644 233.645 206.517 231.917 206.517H45.3789C43.6503 206.517 41.9866 205.644 40.7137 204.07C39.4408 202.496 38.6528 200.337 38.5065 198.019H238.789Z" fill="white"/>
<path d="M65.1078 189.746H214.552V73.9531H65.1078V189.746ZM212.044 186.368H67.616V77.3311H212.044V186.368Z" fill="black"/>
<path d="M88.5068 39.3509V188.057H188.668V39.3509C188.664 38.6806 188.465 38.0391 188.113 37.5651C187.761 37.091 187.285 36.8224 186.787 36.8174H90.3962C90.2827 36.8174 90.1692 36.8317 90.0576 36.8596C89.6245 36.9674 89.2329 37.2751 88.9499 37.7297C88.6669 38.1844 88.5101 38.7578 88.5068 39.3509Z" fill="white"/>
<path d="M187.092 49.1082H88.1911V40.1621L90.0826 36.8066H176.698H185.202L188.352 40.1621V49.1082H187.092Z" fill="white"/>
<path d="M86.9392 189.746H189.606V39.3514C189.603 38.233 189.272 37.1616 188.685 36.3706C188.097 35.5796 187.302 35.1334 186.471 35.1289H90.0848C89.2544 35.1334 88.4589 35.5796 87.8716 36.3706C87.2844 37.1616 86.9529 38.233 86.9496 39.3514L86.9392 189.746ZM187.1 186.368H89.4473V39.3514C89.4517 39.1293 89.519 38.9176 89.6356 38.7606C89.7525 38.6035 89.9094 38.5126 90.0744 38.5069H186.463C186.628 38.5126 186.785 38.6035 186.902 38.7606C187.018 38.9176 187.086 39.1293 187.09 39.3514L187.1 186.368Z" fill="black"/>
<path d="M94.3529 42.0205H182.46C183.157 42.0205 183.721 42.7803 183.721 43.718C183.721 44.6554 183.157 45.4154 182.46 45.4154H94.3529C93.6569 45.4154 93.0926 44.6554 93.0926 43.718C93.0926 42.7803 93.6569 42.0205 94.3529 42.0205Z" fill="black"/>
<path d="M203.951 180.003H233.853C234.345 180.008 234.83 179.845 235.263 179.53C235.89 179.069 236.292 178.311 236.292 177.459L236.275 122.098C236.275 121.736 236.202 121.381 236.066 121.068C235.686 120.179 234.827 119.554 233.836 119.554H203.934C202.889 119.554 202.009 120.235 201.658 121.186C201.551 121.468 201.496 121.78 201.495 122.096L201.51 177.459C201.51 178.737 202.427 179.803 203.613 179.978C203.725 179.995 203.838 180.004 203.951 180.003Z" fill="white"/>
<path d="M203.138 179.578L233.05 179.57C233.542 179.575 234.028 179.412 234.461 179.097C235.088 178.635 235.489 177.878 235.489 177.025L235.472 121.665C235.472 121.303 235.4 120.947 235.263 120.635C234.883 119.745 234.024 119.12 233.033 119.12H232.626L232.632 173.63C232.632 174.475 232.226 175.24 231.603 175.702C231.17 176.017 230.685 176.18 230.193 176.175H200.697V177.019C200.697 178.297 201.614 179.364 202.799 179.539C202.912 179.56 203.025 179.574 203.138 179.578Z" fill="white"/>
<path d="M203.545 181.267H233.449C234.154 181.272 234.849 181.037 235.468 180.583C236.513 179.803 237.14 178.475 237.14 177.033L237.123 121.673C237.121 121.013 236.989 120.365 236.741 119.796C236.114 118.346 234.86 117.442 233.428 117.442H203.525C202.061 117.442 200.755 118.414 200.162 119.922L199.994 120.269V120.426C199.886 120.828 199.831 121.252 199.831 121.679L199.848 177.036C199.848 179.159 201.234 180.977 203.069 181.233C203.227 181.257 203.386 181.268 203.545 181.267ZM233.434 120.806C233.997 120.806 234.436 121.141 234.576 121.473C234.603 121.53 234.618 121.595 234.619 121.662L234.636 177.019C234.636 177.205 234.484 177.442 234.256 177.613C234.007 177.791 233.73 177.882 233.449 177.878H203.548C203.482 177.878 203.416 177.874 203.351 177.864C202.724 177.774 202.36 177.301 202.36 177.019L202.344 121.659C202.343 121.626 202.348 121.592 202.356 121.561L202.473 121.319C202.762 120.967 203.142 120.782 203.531 120.804H233.434V120.806Z" fill="black"/>
<path d="M206.994 143.509H227.273V146.887H206.994V143.509Z" fill="black"/>
<path d="M206.994 136.46H227.273V139.838H206.994V136.46Z" fill="black"/>
<path d="M206.994 151.495H227.273V154.873H206.994V151.495Z" fill="black"/>
<path opacity="0.2" d="M44.9379 79.9472C43.4769 76.2542 42.5803 72.2045 42.3002 68.0371C42.0201 63.8695 42.3629 59.669 43.3076 55.6826C44.2523 51.6966 45.7823 48.0058 47.8035 44.8279C49.8246 41.6503 52.2973 39.0501 55.0772 37.1807C57.857 35.3112 60.8865 34.2105 63.987 33.9437C67.0877 33.6768 70.1965 34.2491 73.1303 35.6265C76.064 37.0042 78.7629 39.1593 81.0684 41.9645C83.3736 44.7699 85.2384 48.1685 86.5524 51.9603C88.3673 56.5502 89.3056 61.6761 89.2828 66.8759C89.26 72.0761 88.2768 77.1868 86.4218 81.7474C84.5668 86.308 81.8984 90.1753 78.657 93.0007C75.4156 95.8261 71.7031 97.521 67.8541 97.9323C68.5259 98.1462 69.2079 98.3196 69.9004 98.4531C66.2568 99.1605 62.5406 98.6935 59.0568 97.0903C55.5746 95.4872 52.4227 92.7938 49.8623 89.2311C47.814 86.5673 46.1439 83.4206 44.9379 79.9472Z" fill="black"/>
<path d="M68.6067 90.6144C55.7587 90.6144 45.3435 76.5869 45.3435 59.2833C45.3435 41.9797 55.7587 27.9521 68.6067 27.9521C81.4545 27.9521 91.8699 41.9797 91.8699 59.2833C91.8699 76.5869 81.4545 90.6144 68.6067 90.6144Z" fill="black"/>
<path d="M46.4532 61.5225C46.4532 66.0147 47.1722 70.4539 48.558 74.5396C49.9437 78.6254 51.967 82.2618 54.4877 85.2026C57.0084 88.1435 59.9701 90.3198 63.1709 91.584C66.3715 92.8482 69.7364 93.1708 73.0376 92.5298C67.5021 91.4522 62.4402 87.7243 58.7787 82.0295C55.1189 76.3348 53.1019 69.054 53.1019 61.5211C53.1019 53.9881 55.1189 46.7073 58.7787 41.0126C62.4402 35.3178 67.5021 31.5901 73.0376 30.5123C69.736 29.871 66.3707 30.1933 63.1699 31.4576C59.968 32.7218 57.0063 34.8981 54.4856 37.8392C51.9649 40.7803 49.9417 44.4173 48.5559 48.5036C47.1701 52.5899 46.4511 57.03 46.4511 61.5225H46.4532Z" fill="black"/>
<path d="M69.1604 93.7941C74.0095 93.7941 78.7497 91.8574 82.7816 88.2291C86.8134 84.6009 89.9557 79.4438 91.8113 73.4103C93.6672 67.3766 94.1527 60.7374 93.2065 54.3322C92.2605 47.9269 89.9256 42.0432 86.4968 37.4252C83.0679 32.8074 78.6993 29.6625 73.9436 28.3884C69.1878 27.1143 64.258 27.7682 59.7778 30.2675C55.2986 32.7666 51.4695 36.999 48.7753 42.4292C46.0811 47.859 44.6431 54.2432 44.6431 60.774C44.6494 69.5284 47.2349 77.9217 51.8311 84.1122C56.4294 90.3024 62.6603 93.7843 69.1604 93.7941ZM69.1604 31.1348C73.5135 31.1348 77.7686 32.8733 81.3881 36.1303C85.0073 39.3875 87.8284 44.0168 89.4942 49.4332C91.1601 54.8496 91.5958 60.8098 90.7466 66.5597C89.8974 72.3097 87.8012 77.5915 84.7233 81.7369C81.6451 85.8825 77.7236 88.7057 73.4541 89.8495C69.1848 90.9932 64.7596 90.406 60.738 88.1624C56.7157 85.9189 53.2795 82.1197 50.8613 77.245C48.443 72.3705 47.1513 66.6394 47.1513 60.7769C47.1575 52.9179 49.4776 45.383 53.6035 39.8258C57.7315 34.2684 63.3251 31.1429 69.1604 31.1348Z" fill="white"/>
<path d="M122.064 140.494H154.162C156.225 140.491 158.204 139.385 159.663 137.42C161.123 135.455 161.943 132.79 161.946 130.011V71.0446C161.943 68.2651 161.123 65.6004 159.663 63.6352C158.204 61.6698 156.225 60.5643 154.162 60.5615H122.064C120 60.5643 118.022 61.6698 116.562 63.6352C115.103 65.6004 114.282 68.2651 114.28 71.0446V130.011C114.282 132.79 115.103 135.455 116.562 137.42C118.022 139.385 120 140.491 122.064 140.494ZM152.224 127.39H124.008V73.6654H152.224V127.39Z" fill="black"/>
<path opacity="0.6" d="M114.22 92.667V132.64C114.222 135.419 115.043 138.084 116.502 140.049C117.961 142.015 119.94 143.12 122.003 143.123H154.112C156.176 143.12 158.154 142.015 159.613 140.049C161.073 138.084 161.893 135.419 161.896 132.64V92.667H152.162V130.011H123.945V92.667H114.22Z" fill="black"/>
<path d="M122.064 143.823H154.162C156.558 143.819 158.855 142.535 160.55 140.253C162.244 137.971 163.197 134.878 163.2 131.65V72.6843C163.195 69.4591 162.241 66.3682 160.547 64.0886C158.853 61.8093 156.557 60.5271 154.162 60.5234H122.064C119.668 60.5271 117.371 61.8107 115.676 64.0926C113.982 66.3747 113.029 69.4684 113.026 72.6956V131.65C113.029 134.878 113.982 137.971 115.676 140.253C117.371 142.535 119.668 143.819 122.064 143.823ZM154.162 63.9015C155.893 63.9046 157.553 64.8318 158.777 66.4806C160.001 68.129 160.689 70.3642 160.692 72.6956V131.65C160.69 133.982 160.001 136.217 158.777 137.866C157.553 139.515 155.893 140.442 154.162 140.444H122.064C120.333 140.442 118.673 139.515 117.449 137.866C116.224 136.217 115.536 133.982 115.534 131.65V72.6843C115.539 70.3549 116.228 68.1226 117.452 66.4766C118.676 64.8304 120.334 63.9046 122.064 63.9015H154.162ZM122.747 130.73H153.472V73.6161H122.747V130.73ZM150.964 127.352H125.255V76.9941H150.964V127.352Z" fill="black"/>
<path d="M110.8 99.9697H165.906C167.292 99.9697 168.415 101.482 168.415 103.348V169.118C168.415 170.983 167.292 172.496 165.906 172.496H110.8C109.415 172.496 108.292 170.983 108.292 169.118V103.348C108.292 101.482 109.415 99.9697 110.8 99.9697Z" fill="black"/>
<path opacity="0.6" d="M107.803 103.841V168.834C107.805 169.832 108.101 170.788 108.625 171.494C109.149 172.199 109.859 172.597 110.6 172.6H137.38V100.074H110.6C109.859 100.077 109.149 100.475 108.625 101.181C108.101 101.887 107.805 102.843 107.803 103.841Z" fill="black"/>
<path d="M110.8 173.481H165.906C166.904 173.481 167.861 172.947 168.567 171.997C169.272 171.047 169.669 169.758 169.669 168.414V102.644C169.669 101.3 169.272 100.012 168.567 99.0612C167.861 98.1109 166.904 97.5771 165.906 97.5771H110.8C109.802 97.5771 108.845 98.1109 108.14 99.0612C107.434 100.012 107.038 101.3 107.038 102.644V168.414C107.038 169.758 107.434 171.047 108.14 171.997C108.845 172.947 109.802 173.481 110.8 173.481ZM165.906 100.955C166.239 100.955 166.558 101.133 166.793 101.45C167.028 101.766 167.161 102.196 167.161 102.644V168.414C167.161 168.862 167.028 169.292 166.793 169.609C166.558 169.925 166.239 170.103 165.906 170.103H110.8C110.468 170.103 110.149 169.925 109.913 169.609C109.678 169.292 109.546 168.862 109.546 168.414V102.644C109.546 102.196 109.678 101.766 109.913 101.45C110.149 101.133 110.468 100.955 110.8 100.955H165.906Z" fill="white"/>
<path d="M56.9917 48.8075C57.4933 48.4297 58.0848 48.3284 58.6408 48.5246C59.1968 48.7208 59.6754 49.1996 59.9743 49.86L64.002 58.7273L70.4375 72.8812L70.6173 73.2781L78.0477 65.2722L79.4021 63.8143C80.2904 62.8572 81.6302 62.556 82.485 63.8143C83.2124 64.8812 83.436 66.9415 82.485 67.9662L72.931 78.2579L71.5766 79.716C71.0144 80.3241 70.4793 80.6563 69.7457 80.524C69.4177 80.4699 69.1036 80.3145 68.8275 80.0704C68.5514 79.8264 68.3204 79.5001 68.153 79.1164L64.1253 70.2491L57.6877 56.0981L56.2016 52.8273C55.6143 51.5155 55.9654 49.545 56.9917 48.8075Z" fill="white"/>
</g>
</g>
<defs>
<linearGradient id="paint0_linear_979_2164" x1="268.724" y1="104.49" x2="6.77208" y2="104.49" gradientUnits="userSpaceOnUse">
<stop/>
<stop offset="1" stop-color="#C4F4EA"/>
</linearGradient>
<clipPath id="clip0_979_2164">
<rect width="269" height="210" fill="white" transform="matrix(-1 0 0 1 269 0)"/>
</clipPath>
</defs>
</svg>
