<svg width="24" height="24" viewBox="0 0 24 24" fill="none" xmlns="http://www.w3.org/2000/svg">
<g clip-path="url(#clip0_979_1999)">
<path d="M12 0C5.37188 0 0 4.02656 0 9C0 12.5156 2.69531 15.5531 6.61406 17.0344L3.99844 24L11.5219 17.9813C11.6813 17.9859 11.8359 18 12 18C18.6281 18 24 13.9734 24 9C24 4.02656 18.6281 0 12 0ZM6 11.0016C4.89844 11.0016 3.99844 10.1062 3.99844 9C3.99844 7.89375 4.89375 6.99844 6 6.99844C7.10156 6.99844 8.00156 7.89375 8.00156 9C8.00156 10.1062 7.10156 11.0016 6 11.0016ZM12 11.0016C10.8984 11.0016 9.99844 10.1062 9.99844 9C9.99844 7.89375 10.8938 6.99844 12 6.99844C13.1016 6.99844 14.0016 7.89375 14.0016 9C14.0016 10.1062 13.1016 11.0016 12 11.0016ZM18 11.0016C16.8984 11.0016 15.9984 10.1062 15.9984 9C15.9984 7.89375 16.8937 6.99844 18 6.99844C19.1016 6.99844 20.0016 7.89375 20.0016 9C20.0016 10.1062 19.1016 11.0016 18 11.0016Z" fill="black"/>
</g>
<defs>
<clipPath id="clip0_979_1999">
<rect width="24" height="24" fill="white"/>
</clipPath>
</defs>
</svg>
