<svg width="164" height="171" viewBox="0 0 164 171" fill="none" xmlns="http://www.w3.org/2000/svg">
<path d="M87.084 42.7617C87.084 42.7617 107.584 30.9251 118.259 45.8859C128.934 60.8466 112.971 72.5311 126.995 81.3341C141.019 90.1372 130.188 107.03 142.903 112.643C155.618 118.255 151.843 142.504 136.94 148.099" stroke="#CCDDE2" stroke-width="5.14" stroke-miterlimit="10"/>
<path d="M28.5655 130.926C28.5261 131.097 28.4933 131.254 28.4654 131.423C28.3982 131.776 28.3359 132.133 28.2916 132.496C27.3076 140.059 30.4925 147.644 34.9533 153.45" stroke="#CCDDE2" stroke-width="5.14" stroke-miterlimit="10"/>
<path d="M99.8382 44.3252H37.5166C29.8749 44.3252 23.6799 50.7845 23.6799 58.7525V119.928C23.6799 127.896 29.8749 134.355 37.5166 134.355H99.8382C107.48 134.355 113.675 127.896 113.675 119.928V58.7525C113.675 50.7845 107.48 44.3252 99.8382 44.3252Z" fill="white"/>
<path d="M98.9214 43.0098H37.1213C28.9723 43.0098 22.3662 49.8976 22.3662 58.3946V118.97C22.3662 127.466 28.9723 134.355 37.1213 134.355H98.9214C107.07 134.355 113.676 127.466 113.676 118.97V58.3946C113.676 49.8976 107.07 43.0098 98.9214 43.0098Z" stroke="black" stroke-width="5.14" stroke-miterlimit="10"/>
<path d="M98.0687 46.0947H39.2861C31.6444 46.0947 25.4495 52.5539 25.4495 60.522V118.156C25.4495 126.124 31.6444 132.583 39.2861 132.583H98.0687C105.71 132.583 111.905 126.124 111.905 118.156V60.522C111.905 52.5539 105.71 46.0947 98.0687 46.0947Z" fill="black"/>
<path d="M101.691 50.6348H83.589C81.129 50.6348 79.1299 52.8749 79.1299 55.6331V106.056C79.1299 108.819 81.129 111.061 83.589 111.061H101.691C104.151 111.061 106.159 108.819 106.159 106.056V55.6331C106.159 52.8749 104.158 50.6348 101.691 50.6348ZM104.051 104.652C104.051 106.957 102.388 108.819 100.332 108.819H84.9519C82.8953 108.819 81.2324 106.957 81.2324 104.652V57.049C81.2324 54.7456 82.8953 52.8817 84.9519 52.8817H100.329C102.385 52.8817 104.048 54.7456 104.048 57.049L104.051 104.652Z" fill="#D7E8F0"/>
<path d="M60.885 114.284L34.3547 113.886C34.0692 113.881 33.7973 113.758 33.5987 113.544C33.3999 113.33 33.2909 113.043 33.2953 112.745C33.2951 112.643 33.3096 112.541 33.3379 112.443C33.4058 112.208 33.5449 112.003 33.7342 111.859C33.9236 111.714 34.1528 111.638 34.3875 111.641L60.9178 112.048C60.7164 112.368 60.6029 112.739 60.5898 113.122C60.5792 113.531 60.6817 113.934 60.885 114.284Z" fill="white"/>
<path d="M67.3153 113.56C67.2477 113.794 67.109 114 66.92 114.145C66.7311 114.291 66.5022 114.369 66.2673 114.367L64.3518 114.338C64.5568 114.004 64.6685 113.617 64.6744 113.22C64.6801 112.824 64.5798 112.433 64.3846 112.093L66.3001 112.122C66.5856 112.127 66.8576 112.25 67.0563 112.464C67.2551 112.678 67.3648 112.965 67.3612 113.262C67.3601 113.363 67.3446 113.464 67.3153 113.56Z" fill="#D7E8F0"/>
<path d="M67.2532 118.014C67.1859 118.248 67.0475 118.453 66.8588 118.597C66.67 118.742 66.4412 118.819 66.2069 118.816L39.8406 118.414C40.1333 118.053 40.2998 117.599 40.3129 117.127C40.3255 116.799 40.263 116.473 40.1309 116.176L66.2364 116.569C66.5216 116.575 66.793 116.698 66.9914 116.912C67.19 117.125 67.2994 117.412 67.2958 117.71C67.296 117.813 67.2815 117.915 67.2532 118.014Z" fill="#D7E8F0"/>
<path d="M36.6704 118.365L34.2941 118.333C34.009 118.329 33.7371 118.207 33.5382 117.994C33.3393 117.781 33.2295 117.495 33.233 117.197C33.2335 117.093 33.2484 116.989 33.2773 116.89C33.3437 116.656 33.4818 116.451 33.6705 116.306C33.8591 116.162 34.0881 116.087 34.3219 116.091L36.4392 116.127C36.3172 116.395 36.248 116.686 36.2358 116.982C36.2176 117.482 36.3718 117.973 36.6704 118.365Z" fill="white"/>
<path d="M59.0072 123.209L34.3908 122.836C34.1059 122.829 33.8353 122.705 33.637 122.492C33.4389 122.279 33.329 121.993 33.3313 121.696C33.3325 121.594 33.3479 121.494 33.3773 121.398C33.4447 121.163 33.5832 120.958 33.7722 120.812C33.9611 120.667 34.1904 120.589 34.4252 120.591L59.0039 120.969C58.8028 121.305 58.6961 121.693 58.6961 122.089C58.6961 122.485 58.8028 122.873 59.0039 123.209H59.0072Z" fill="white"/>
<path d="M67.3564 122.52C67.2892 122.755 67.1499 122.96 66.96 123.104C66.7701 123.249 66.5402 123.325 66.3052 123.32L62.4462 123.258L59.0022 123.209C58.8012 122.873 58.6946 122.485 58.6946 122.089C58.6946 121.693 58.8012 121.305 59.0022 120.969L62.5053 121.023L66.3363 121.08C66.621 121.085 66.8921 121.207 67.0906 121.42C67.2892 121.633 67.3989 121.918 67.3958 122.215C67.3977 122.318 67.3844 122.421 67.3564 122.52Z" fill="#D7E8F0"/>
<path d="M64.3518 114.337C64.1111 114.731 63.7527 115.031 63.3322 115.191C62.9116 115.351 62.4522 115.362 62.025 115.223C61.5976 115.083 61.2261 114.801 60.968 114.42C60.7097 114.039 60.5792 113.579 60.5962 113.113C60.6054 112.834 60.6672 112.559 60.7783 112.304C60.8893 112.05 61.0474 111.821 61.2434 111.63C61.4395 111.44 61.6696 111.291 61.9207 111.194C62.1719 111.096 62.4391 111.051 62.7069 111.061C62.9749 111.07 63.2386 111.134 63.4828 111.25C63.727 111.365 63.9467 111.53 64.1296 111.735C64.3126 111.939 64.4548 112.179 64.5484 112.441C64.6419 112.704 64.6849 112.982 64.6749 113.262C64.6611 113.644 64.5496 114.015 64.3518 114.337Z" fill="white"/>
<g opacity="0.72">
<path opacity="0.72" d="M63.5826 113.031C63.5379 113.287 63.424 113.524 63.2546 113.715C63.1726 113.812 63.0819 113.901 62.984 113.98C62.9315 114.019 62.656 114.254 62.597 114.224C62.2296 114.031 61.7639 113.54 61.7065 113.067C61.6975 112.992 61.6975 112.917 61.7065 112.843C61.727 112.713 61.7921 112.595 61.8895 112.512C61.9869 112.428 62.1101 112.384 62.2362 112.388C62.3177 112.392 62.3972 112.415 62.4686 112.457C62.5401 112.498 62.6013 112.556 62.6478 112.626C62.7197 112.532 62.8187 112.466 62.9299 112.436C63.0413 112.407 63.1587 112.416 63.2646 112.462C63.3706 112.508 63.459 112.59 63.5167 112.693C63.5743 112.797 63.598 112.917 63.5843 113.036L63.5826 113.031Z" fill="white"/>
</g>
<path d="M39.8405 118.414C39.6457 118.657 39.4013 118.852 39.1251 118.984C38.849 119.116 38.5479 119.182 38.2441 119.177C37.9402 119.173 37.6413 119.097 37.369 118.957C37.0968 118.816 36.858 118.614 36.6704 118.365C36.3706 117.971 36.2163 117.478 36.2358 116.976C36.2479 116.68 36.317 116.389 36.4391 116.121C36.612 115.751 36.8839 115.441 37.2221 115.228C37.5602 115.016 37.9502 114.91 38.3448 114.924C38.725 114.936 39.0941 115.06 39.4098 115.281C39.7255 115.502 39.9748 115.812 40.1291 116.174C40.2613 116.471 40.3238 116.797 40.3112 117.125C40.2989 117.598 40.1329 118.052 39.8405 118.414Z" fill="white"/>
<g opacity="0.72">
<path opacity="0.72" d="M39.2237 116.897C39.179 117.153 39.0653 117.39 38.8957 117.581C38.8141 117.679 38.7227 117.768 38.6235 117.846C38.571 117.885 38.2955 118.121 38.2381 118.091C37.8691 117.897 37.405 117.407 37.3476 116.933C37.3386 116.859 37.3386 116.783 37.3476 116.709C37.3686 116.579 37.4337 116.462 37.5309 116.378C37.6284 116.295 37.7514 116.251 37.8773 116.254C37.9588 116.258 38.0384 116.282 38.1097 116.323C38.1812 116.364 38.2425 116.422 38.2889 116.492C38.3608 116.398 38.46 116.331 38.5715 116.302C38.683 116.272 38.8008 116.282 38.9067 116.328C39.0127 116.375 39.1012 116.456 39.1588 116.56C39.2162 116.664 39.2397 116.785 39.2254 116.904L39.2237 116.897Z" fill="white"/>
</g>
<path d="M62.4462 123.259C62.201 123.646 61.8415 123.939 61.422 124.093C61.0026 124.248 60.5464 124.255 60.1224 124.115C59.6985 123.974 59.3302 123.694 59.0732 123.315C58.8162 122.936 58.6848 122.481 58.6988 122.017C58.7125 121.646 58.8175 121.285 59.0038 120.969C59.1906 120.657 59.4512 120.401 59.7607 120.226C60.0701 120.05 60.4178 119.961 60.7701 119.966C61.1225 119.972 61.4674 120.072 61.7716 120.257C62.076 120.442 62.3292 120.706 62.5068 121.024C62.702 121.37 62.7976 121.768 62.7824 122.169C62.7681 122.558 62.6518 122.934 62.4462 123.259Z" fill="white"/>
<g opacity="0.72">
<path opacity="0.72" d="M61.6902 121.939C61.6461 122.195 61.5322 122.432 61.3622 122.623C61.28 122.72 61.1888 122.809 61.0899 122.888C61.0375 122.929 60.7619 123.163 60.7045 123.132C60.3355 122.939 59.8714 122.448 59.814 121.975C59.8042 121.9 59.8042 121.825 59.814 121.751C59.8303 121.644 59.877 121.544 59.9483 121.465C60.0195 121.386 60.1118 121.332 60.2134 121.309C60.3149 121.285 60.4207 121.294 60.5171 121.335C60.6135 121.375 60.696 121.445 60.7537 121.535C60.8259 121.442 60.9251 121.376 61.0363 121.347C61.1475 121.318 61.2648 121.327 61.3705 121.373C61.4763 121.42 61.5647 121.5 61.6228 121.604C61.6807 121.707 61.7049 121.827 61.6918 121.946L61.6902 121.939Z" fill="white"/>
</g>
<path d="M33.0919 55.9377L33.1378 62.4955C33.1491 63.6388 33.584 64.7332 34.3517 65.5497C35.1192 66.3663 36.1598 66.8416 37.2558 66.8765L43.4878 66.9894C44.0225 66.9966 44.5528 66.8919 45.0479 66.6816C45.5431 66.4714 45.9928 66.1597 46.3704 65.7652C46.748 65.3707 47.046 64.9011 47.2467 64.3845C47.4473 63.8678 47.5467 63.3144 47.5386 62.7571L47.4911 56.201C47.4814 55.0565 47.0473 53.9604 46.2796 53.1423C45.5117 52.3244 44.4702 51.848 43.373 51.8131L37.141 51.6986C36.606 51.6916 36.0752 51.7967 35.5799 52.0074C35.0845 52.2182 34.6348 52.5305 34.2572 52.9258C33.8797 53.321 33.5821 53.7913 33.3818 54.3085C33.1817 54.826 33.083 55.3799 33.0919 55.9377Z" fill="white"/>
<path d="M34.0496 57.5822L34.0824 62.3291C34.0925 63.3225 34.4705 64.2732 35.1375 64.9827C35.8044 65.692 36.7085 66.1052 37.6608 66.1356L43.0728 66.2331C43.5376 66.2402 43.9989 66.15 44.4296 65.9678C44.8603 65.7857 45.2516 65.5154 45.5802 65.1727C45.9089 64.83 46.1682 64.422 46.3428 63.973C46.5177 63.5239 46.6041 63.0427 46.5972 62.5583V62.2368C45.8379 60.6174 44.3586 58.1944 42.7809 59.6427C40.5062 61.7272 39.4648 60.1403 38.1397 58.0952C37.0229 56.3835 35.3402 55.1335 34.0496 57.5822Z" fill="black"/>
<path d="M44.2223 56.9279C44.9088 56.4523 45.0857 55.4711 44.6177 54.7363C44.1494 54.0017 43.2135 53.7917 42.527 54.2673C41.8403 54.7428 41.6634 55.724 42.1316 56.4586C42.5997 57.1934 43.5358 57.4034 44.2223 56.9279Z" fill="black"/>
<path d="M67.632 64.7627C66.6588 64.7618 65.7094 65.0751 64.914 65.6598C64.1186 66.2442 63.5164 67.0714 63.1901 68.0273C62.8639 68.9831 62.8296 70.0209 63.092 70.998C63.3544 71.9751 63.9005 72.8435 64.6554 73.4837L53.9396 93.5249C53.8635 93.5126 53.787 93.5045 53.71 93.5009C53.5132 93.504 53.3179 93.5357 53.1295 93.595L45.1 83.1982C45.4553 82.682 45.6553 82.067 45.6745 81.4319C45.6935 80.7967 45.5312 80.17 45.2076 79.6313C44.8842 79.0928 44.4144 78.6667 43.8581 78.4073C43.3016 78.1479 42.6838 78.067 42.0831 78.1747C41.4825 78.2826 40.9262 78.5742 40.4851 79.0126C40.0439 79.4511 39.7377 80.0164 39.6055 80.6368C39.4735 81.2572 39.5212 81.9046 39.743 82.4964C39.9649 83.0884 40.3504 83.5982 40.8508 83.9609L35.2272 100.65C34.7354 100.681 34.2685 100.887 33.9064 101.236C33.5441 101.584 33.3088 102.052 33.2404 102.561C33.172 103.07 33.2746 103.588 33.5311 104.027C33.7876 104.465 34.1819 104.798 34.647 104.968C35.1119 105.138 35.6192 105.134 36.0822 104.958C36.545 104.782 36.9353 104.444 37.1862 104.002C37.4373 103.56 37.5337 103.041 37.4591 102.533C37.3845 102.025 37.1436 101.56 36.777 101.216L42.4022 84.5269C42.4711 84.5269 42.5384 84.5371 42.6072 84.5371C43.0263 84.5373 43.4408 84.4484 43.8258 84.2755L51.8486 94.6706C51.6738 95.0063 51.5857 95.3835 51.5931 95.7653C51.6007 96.1472 51.7033 96.5205 51.8911 96.8485C52.0791 97.1763 52.3456 97.4475 52.6645 97.6354C52.9834 97.8232 53.3438 97.9211 53.71 97.9196C54.1081 97.9218 54.4985 97.8066 54.8364 97.5875C55.1744 97.3683 55.4461 97.054 55.6203 96.6809C55.7943 96.3077 55.8638 95.8909 55.8207 95.4784C55.7776 95.0658 55.6234 94.6744 55.3763 94.3491L66.092 74.3148C66.739 74.5483 67.4272 74.632 68.1083 74.56C68.7895 74.4878 69.4473 74.2617 70.0362 73.8975C70.625 73.5333 71.1306 73.0394 71.5177 72.4507C71.9049 71.8618 72.1641 71.1921 72.2776 70.4879C72.3911 69.7839 72.3562 69.0627 72.175 68.3742C71.9937 67.6858 71.6708 67.0467 71.2285 66.5018C70.7864 65.9568 70.2355 65.5189 69.6143 65.2186C68.9932 64.9181 68.3167 64.7627 67.632 64.7627Z" fill="white"/>
<path d="M140.338 120.918C140.327 120.865 140.315 120.814 140.299 120.761C139.769 118.785 138.678 117.022 137.17 115.704C137.152 115.694 137.13 115.675 137.112 115.663C136.973 115.559 136.827 115.458 136.681 115.359C136.484 115.231 136.281 115.107 136.079 114.984C136.062 114.972 136.043 114.962 136.023 114.955C135.242 114.576 134.499 114.118 133.804 113.587L133.77 113.563C132.832 112.914 131.984 112.158 131.398 111.109C131.385 111.087 131.374 111.064 131.366 111.039C131.354 111.039 131.354 111.021 131.349 111.015C130.81 110.16 130.483 109.223 130.551 108.25V108.221C130.387 106.634 130.551 104.964 130.488 103.353C130.488 103.254 130.488 103.155 130.472 103.054C130.455 102.953 130.455 102.831 130.449 102.732C130.455 102.7 130.455 102.666 130.449 102.633C130.427 102.315 130.387 101.998 130.331 101.684C129.798 98.6727 127.943 95.9897 125.673 94.0984C125.622 94.0528 125.567 94.0117 125.509 93.9753C122.964 92.0293 120.178 91.2735 118.352 90.9811C118.335 90.9787 118.318 90.9787 118.301 90.9811C117.616 90.9281 116.965 90.94 116.363 90.7981C116.351 90.7981 116.34 90.7981 116.335 90.7981C115.662 90.662 115.06 90.2695 114.649 89.6969C114.494 89.4888 114.355 89.2673 114.234 89.0351C114.217 89.0221 114.205 89.0033 114.2 88.9821C113.727 88.2152 113.415 87.3528 113.285 86.4513C113.268 86.3641 113.245 86.2803 113.234 86.1931C112.84 84.2437 112.829 82.1233 112.819 80.3705C112.666 77.6704 111.515 74.1906 109.514 71.7128C109.514 71.7128 109.514 71.7008 109.503 71.7008C108.923 71.0958 108.269 70.5722 107.559 70.143C105.764 69.0948 103.703 68.6471 101.655 68.8605C101.655 68.8605 101.655 68.8605 101.644 68.8605C101.641 68.8595 101.637 68.8595 101.634 68.8605C100.375 68.9715 99.1543 69.3716 98.0605 70.0319C97.6584 70.2728 97.2781 70.5509 96.924 70.8629C94.792 72.7713 93.5702 75.7535 93.2324 78.6947C93.2045 78.9222 93.1881 79.1462 93.1766 79.3787C93.1709 79.4059 93.1709 79.4338 93.1766 79.4608C92.9106 79.8387 92.753 80.2878 92.7223 80.7553C92.6922 81.2741 92.8121 81.7903 93.0664 82.2373C93.3208 82.6843 93.698 83.0414 94.1491 83.2621V83.3083C94.1491 83.4605 94.1491 83.6195 94.1491 83.7717C94.1819 84.8123 94.3994 85.8372 94.7904 86.795C95.4464 88.411 96.6157 90.256 98.5985 90.5485C98.9509 90.601 99.3055 90.6346 99.6612 90.6493L100.599 94.832L101.403 98.4572C104.908 96.3778 109.245 95.7503 112.947 96.9644H112.958C114.691 97.5117 116.265 98.5023 117.537 99.8457C121.65 103.343 126.28 119.986 126.557 121.017C126.558 121.03 126.562 121.041 126.569 121.051C126.569 121.051 126.569 121.051 126.569 121.063C126.569 121.075 126.569 121.081 126.58 121.092C126.592 121.141 126.609 121.188 126.631 121.233C126.647 121.286 126.665 121.339 126.687 121.392L126.805 121.708C127.625 123.916 130.272 131.113 130.861 132.89C131.564 134.988 132.113 135.152 132.113 135.152C132.144 135.145 132.172 135.133 132.199 135.116L132.31 135.07C134.086 134.32 135.734 133.273 137.188 131.971C137.199 131.971 137.199 131.971 137.199 131.96C138.545 130.533 139.521 128.773 140.036 126.845C140.604 124.926 140.708 122.89 140.338 120.918Z" fill="white"/>
<path d="M95.0232 78.0157C95.0232 78.0157 95.4512 70.5396 102.147 68.7817C108.843 67.0239 112.835 75.1395 113.135 80.3431C113.435 85.5466 113.135 89.1393 116.655 90.7741C116.655 90.7741 126.823 90.6458 130.565 100.389C130.565 100.389 131.072 105.16 130.865 108.231C130.659 111.303 134.334 113.996 136.336 114.945C138.339 115.894 141.821 119.75 140.874 126.048C139.928 132.346 132.428 135.147 132.428 135.147C132.428 135.147 131.876 134.976 131.174 132.881C130.472 130.786 126.879 121.068 126.879 121.068C126.879 121.068 122.091 103.455 117.842 99.8507C115.504 97.8637 112.996 96.9643 111.344 95.9177C109.604 94.8148 108.768 93.599 108.187 92.8192C107.054 91.299 105.045 89.0025 106.498 83.5852C107.951 78.1679 106.487 80.8988 105.119 80.1361C105.119 80.1361 103.423 77.4001 100.865 79.3359C98.3065 81.2716 98.9297 76.5588 98.9297 76.5588L97.8063 78.1354C97.8063 78.1354 96.0449 78.4997 95.0232 78.0157Z" fill="#CCDDE2"/>
<path d="M78.2969 88.2037C78.369 88.0977 78.4609 87.9865 78.538 87.8754C78.615 87.7642 78.7118 87.6582 78.802 87.5522C79.0954 87.2227 79.4127 86.9175 79.7516 86.6391C79.8582 86.5501 79.9648 86.4681 80.0714 86.3877L78.2969 88.2037Z" fill="#3FBDF1"/>
<path d="M27.7061 163.647H22.468C21.6644 163.647 20.8394 163.647 20.0982 163.305C19.3569 162.963 18.7862 162.351 18.2433 161.742C14.4582 157.577 11.9867 154.543 8.19995 150.365L9.46931 148.997C10.165 148.386 11.0524 148.064 11.9616 148.093C12.8709 148.121 13.7382 148.498 14.3975 149.151L19.762 154.646L27.7061 163.647Z" fill="black"/>
<path d="M101.741 141.511C99.1353 142.098 96.5173 142.657 93.8868 143.187C90.785 143.814 87.6822 144.427 84.5781 145.027L81.6835 141.335L76.9275 146.479C68.393 148.075 59.842 149.57 51.2747 150.966L51.314 150.925L73.7115 127.359C75.2421 125.747 77.1703 124.608 79.2827 124.066C81.3954 123.524 83.6104 123.602 85.6835 124.29L94.5051 127.224C95.9629 132.449 98.4247 137.31 101.741 141.511Z" fill="white"/>
<path d="M95.1922 108.973C94.0852 112.969 93.826 117.222 94.282 121.468C94.3914 122.557 94.5554 123.64 94.774 124.717C94.9757 125.794 95.2348 126.854 95.5267 127.915C96.8512 132.655 98.9717 137.113 101.79 141.082C101.678 141.106 101.572 141.135 101.475 141.157C98.295 137.036 95.927 132.301 94.5066 127.224C94.2246 126.198 93.9786 125.172 93.7818 124.146C93.585 123.12 93.421 122.061 93.3094 121.013C92.8716 116.918 93.1241 112.817 94.1918 108.968C94.9763 106.132 96.3885 103.528 98.3147 101.365C98.7952 100.821 99.3174 100.319 99.876 99.8638L99.9039 99.8416L99.9941 99.7715L100.033 99.7356C100.561 99.318 101.115 98.9385 101.691 98.6001C102.952 97.8515 104.308 97.293 105.719 96.9414C104.767 97.2778 103.847 97.7078 102.972 98.2256C102.373 98.5782 101.799 98.9736 101.252 99.4089L101.213 99.4431L101.122 99.5133H101.113L101.085 99.5355C100.506 100.006 99.9642 100.526 99.466 101.088C97.4709 103.333 96.0072 106.033 95.1922 108.973Z" fill="#2E2E2E"/>
<path d="M113.096 128.305C113.096 128.305 117.658 134.35 121.46 141.568C116.92 139.652 107.717 140.371 104.027 140.771C103.537 140.795 103.049 140.852 102.566 140.942C102.535 140.942 102.505 140.946 102.475 140.954C102.464 140.955 102.454 140.955 102.443 140.954C102.206 141.002 101.987 141.043 101.787 141.089C98.9683 137.12 96.8478 132.662 95.5234 127.922C95.2314 126.862 94.9723 125.801 94.7706 124.724C94.5689 123.647 94.3934 122.561 94.2786 121.475C93.8227 117.229 94.0818 112.976 95.1888 108.98C96.0058 106.039 97.4718 103.339 99.4692 101.095C99.9674 100.533 100.509 100.013 101.088 99.5426L101.116 99.5203H101.126L101.216 99.4502L101.255 99.416C101.802 98.9806 102.377 98.5853 102.976 98.2327C103.85 97.7147 104.77 97.2848 105.723 96.9485C108.228 96.3158 110.862 96.3346 113.239 97.1195H113.25C114.649 97.8411 116.279 98.6841 117.829 100.003C120.015 102.333 121.171 105.475 122.273 108.532C123.795 112.75 125.322 116.963 126.852 121.172C126.853 121.185 126.857 121.197 126.864 121.208C126.864 121.208 126.864 121.208 126.864 121.22C126.864 121.232 126.864 121.237 126.875 121.249C126.887 121.298 126.904 121.345 126.926 121.39C126.942 121.444 126.96 121.497 126.982 121.549C116.86 119.343 113.096 128.305 113.096 128.305Z" fill="#2E2E2E"/>
<path d="M99.8759 99.8643C99.317 100.318 98.7943 100.817 98.3129 101.359C96.3868 103.522 94.9746 106.126 94.19 108.962C93.1224 112.811 92.8698 116.911 93.3077 121.007C93.1781 121.082 93.0436 121.147 92.9092 121.217C90.0884 122.652 86.9707 123.707 83.8022 123.683C82.0645 123.663 80.3515 123.252 78.7797 122.479C77.2081 121.706 75.8149 120.588 74.6953 119.203C72.9257 117.017 71.8073 114.375 70.9807 111.679C70.1099 108.832 69.4473 105.972 68.3682 103.202C67.6777 101.438 66.9873 99.4573 65.4982 98.2159C64.7339 97.5832 63.7778 97.3609 63.0201 96.7282C62.2154 96.0537 61.6324 95.1345 61.3523 94.0982C61.2284 93.6519 61.1494 93.1934 61.1161 92.7302C60.9751 90.9022 61.4441 88.9921 62.0198 87.2992L59.0825 85.237C58.2838 84.6744 57.9345 83.4569 58.4068 82.5831C58.5421 82.3334 58.7276 82.1172 58.9508 81.9497C59.1739 81.7819 59.4292 81.6667 59.6991 81.6118C59.9499 81.562 60.2077 81.5659 60.4568 81.6232C60.7061 81.6805 60.9416 81.7901 61.1489 81.9452L67.2169 86.4904C67.2169 86.4904 67.6843 84.9155 69.116 85.4011C70.4543 85.8577 75.2185 87.8088 75.0545 93.8314C75.0317 94.7492 75.2641 95.6543 75.7236 96.4375L81.4209 106.267C81.8247 106.962 82.3636 107.561 83.0034 108.026C83.643 108.491 84.3688 108.81 85.1342 108.964C85.8998 109.118 86.6876 109.103 87.4471 108.92C88.2068 108.737 88.921 108.39 89.5439 107.901L99.5167 100.146L99.8759 99.8643Z" fill="white"/>
<path d="M101.742 102.624L95.0183 119.963L93.2881 120.806L90.405 122.207C92.7141 112.359 89.5457 107.768 89.5457 107.768L97.8949 101.27C98.0179 101.317 98.1409 101.358 98.2705 101.405C99.9892 101.996 101.742 102.624 101.742 102.624Z" fill="#2E2E2E"/>
<path d="M105.263 140.529C102.336 141.285 104.696 140.712 101.752 141.374" stroke="black" stroke-width="5.14" stroke-miterlimit="10"/>
<path d="M133.771 140.121C133.457 139.254 133.142 138.387 132.833 137.52L132.799 137.432C129.3 127.742 125.797 118.057 122.288 108.377C121.186 105.325 120.03 102.178 117.844 99.8475C113.288 94.9979 105.249 95.4596 100.051 99.5961L100.012 99.6303L99.9776 99.6542C99.3862 100.132 98.8339 100.66 98.3261 101.233C96.3998 103.396 94.9876 106.001 94.2032 108.837C92.86 113.669 92.8043 118.9 93.7932 124.015C93.9883 125.051 94.236 126.075 94.5164 127.093C95.9752 132.317 98.4375 137.178 101.754 141.38C99.1461 141.965 96.5282 142.523 93.8998 143.056C79.7422 145.917 65.5376 148.506 51.286 150.823C42.7121 152.223 33.6281 153.73 25.0313 154.927L21.7513 155.349C21.3921 155.396 21.0272 155.359 20.6835 155.241C20.3396 155.123 20.0253 154.926 19.7636 154.665L14.3975 149.16C13.7381 148.507 12.8709 148.13 11.9616 148.102C11.0524 148.073 10.165 148.395 9.46931 149.007L8.19995 150.375C11.9867 154.552 14.4582 157.586 18.245 161.763C18.796 162.372 19.3634 162.993 20.0998 163.326C20.8361 163.66 21.666 163.668 22.4696 163.668H27.1665C31.1386 163.668 35.1128 163.668 39.0893 163.668L119.602 163.685C122.9 163.685 126.309 163.663 129.334 162.286C130.793 161.614 132.106 160.64 133.193 159.422" stroke="black" stroke-width="5.14" stroke-miterlimit="10"/>
<path d="M106.6 118.236L134.662 161.691C135.053 162.297 135.581 162.793 136.199 163.136C136.818 163.479 137.507 163.659 138.208 163.659H150.427C150.906 163.659 151.364 163.461 151.703 163.108C152.041 162.755 152.231 162.277 152.231 161.778C152.231 161.279 152.041 160.801 151.703 160.448C151.364 160.095 150.906 159.897 150.427 159.897H144.664C143.733 159.897 142.824 159.607 142.052 159.065C141.28 158.522 140.682 157.752 140.333 156.852L132.512 136.701" stroke="black" stroke-width="5.14" stroke-miterlimit="10"/>
<path d="M51.2844 150.822L51.3238 150.781L73.7229 127.224C75.2535 125.612 77.1812 124.472 79.2935 123.929C81.4058 123.386 83.621 123.461 85.6949 124.146L94.5148 127.082" stroke="black" stroke-width="5.14" stroke-miterlimit="10"/>
<path d="M133.849 140.151L133.77 140.121" stroke="black" stroke-width="5.14" stroke-miterlimit="10"/>
<path d="M84.6222 144.929L81.6965 141.198L76.8896 146.386" stroke="black" stroke-width="5.14" stroke-miterlimit="10"/>
<path d="M118.254 100.398V100.393" stroke="black" stroke-width="5.14" stroke-miterlimit="10"/>
<path d="M137.662 160.279C138.398 160.251 139.135 160.275 139.867 160.353C140.466 160.416 141.091 160.454 141.657 160.744C142.127 160.987 142.618 161.57 142.593 162.283C142.549 163.675 141.15 163.665 140.384 163.665" stroke="black" stroke-width="5.14" stroke-miterlimit="10"/>
<path d="M137.955 163.659H140.382H140.417H147.848" stroke="black" stroke-width="5.14" stroke-miterlimit="10"/>
<path d="M93.316 120.871C93.316 120.871 93.2996 120.871 93.293 120.883C93.17 120.953 93.0454 121.017 92.9175 121.082C92.0991 121.502 91.2606 121.877 90.405 122.207C88.2927 123.033 86.0623 123.575 83.8106 123.547C82.0727 123.527 80.3594 123.117 78.7876 122.343C77.2156 121.57 75.8221 120.453 74.702 119.067C72.9325 116.882 71.8156 114.24 70.9891 111.543C70.1182 108.696 69.4557 105.837 68.3765 103.067C67.6861 101.304 66.994 99.3235 65.5065 98.0804C64.7423 97.4477 63.7862 97.2254 63.0285 96.5927C62.2237 95.9179 61.6402 94.9988 61.359 93.9627C61.2366 93.5162 61.1581 93.0578 61.1245 92.5947C60.9834 90.7667 61.4525 88.8583 62.0281 87.1654L59.0892 85.1032C58.2922 84.5406 57.9412 83.3231 58.4152 82.4493C58.5505 82.1996 58.7361 81.9835 58.9592 81.8157C59.1822 81.6481 59.4376 81.5329 59.7075 81.478C59.9583 81.4282 60.2161 81.4322 60.4652 81.4894C60.7145 81.5467 60.95 81.6563 61.1573 81.8114L67.2253 86.3566C67.2253 86.3566 67.6927 84.7817 69.1244 85.2673C70.461 85.7239 75.2252 87.675 75.0628 93.6976C75.0402 94.6154 75.2726 95.5205 75.7319 96.3037L81.4277 106.134C81.8316 106.829 82.3705 107.427 83.0096 107.891C83.6487 108.355 84.3739 108.674 85.1385 108.828C85.9032 108.981 86.6902 108.967 87.4489 108.784C88.2077 108.601 88.9215 108.255 89.544 107.768L97.8932 101.27L99.5168 100.011L99.9105 99.7066L100.001 99.6365L100.04 99.6023" stroke="black" stroke-width="5.14" stroke-miterlimit="10"/>
<path d="M67.24 86.3418C67.24 86.3418 66.2938 88.7443 69.5574 90.3449" stroke="black" stroke-width="5.14" stroke-miterlimit="10"/>
<path d="M61.5082 88.9727C61.5082 88.9727 61.1802 91.8797 64.8849 92.9655C66.1969 93.3503 67.2596 91.7685 66.461 90.6194L66.4216 90.5664" stroke="black" stroke-width="5.14" stroke-miterlimit="10"/>
<path d="M61.1162 92.5625C61.1162 92.5625 62.3528 95.0882 64.3962 94.8077C66.2002 94.5598 65.5442 92.7215 65.5442 92.7215" stroke="black" stroke-width="5.14" stroke-miterlimit="10"/>
<path d="M62.0312 87.1494L64.1846 88.6628" stroke="black" stroke-width="5.14" stroke-miterlimit="10"/>
<path d="M132.02 135.294C136.169 133.947 139.103 131.247 140.353 126.847C141.55 122.63 140.771 117.835 136.989 115.362C135.105 114.143 132.879 113.191 131.71 111.103C130.114 108.247 131.19 104.764 130.639 101.674C130.067 98.4658 127.997 95.6238 125.516 93.7189C123.676 92.3143 121.538 91.3953 119.284 91.041C117.619 90.7794 116.104 91.212 114.966 89.673C113.162 87.2431 113.148 83.2725 113.134 80.3467C113.124 78.0997 112.615 75.863 111.507 73.9359L111.482 73.8931C110.603 72.3396 109.362 71.0422 107.874 70.1209C105.086 68.4382 101.175 68.2826 98.3622 70.0131C97.9607 70.2631 97.5811 70.5492 97.2273 70.8681C94.6279 73.1886 93.3848 77.1096 93.4455 80.6015" stroke="#CCDDE2" stroke-width="5.14" stroke-miterlimit="10"/>
<path d="M98.728 76.333C98.5837 77.359 97.9835 78.3098 96.924 78.5953C95.7203 78.9134 95.0823 80.1343 94.7445 81.3621C94.2634 83.1624 94.3879 85.08 95.0971 86.7965C95.7531 88.4107 96.9257 90.2575 98.9068 90.5585C102.533 91.0971 104.335 89.5034 104.335 89.5034" stroke="black" stroke-width="5.14" stroke-miterlimit="10"/>
<path d="M101.749 81.8269C102.093 81.8269 102.372 81.5361 102.372 81.1771C102.372 80.8182 102.093 80.5273 101.749 80.5273C101.405 80.5273 101.126 80.8182 101.126 81.1771C101.126 81.5361 101.405 81.8269 101.749 81.8269Z" fill="black"/>
<path d="M96.2746 81.3982C96.6188 81.3982 96.8978 81.1074 96.8978 80.7484C96.8978 80.3895 96.6188 80.0986 96.2746 80.0986C95.9305 80.0986 95.6514 80.3895 95.6514 80.7484C95.6514 81.1074 95.9305 81.3982 96.2746 81.3982Z" fill="black"/>
<path d="M98.728 76.333C98.5887 76.9505 98.6095 77.5957 98.7886 78.202C98.8167 78.3009 98.8529 78.397 98.8969 78.4893C99.3282 79.5495 100.334 80.3925 102.115 80.2882C105.992 80.0642 107.374 79.8009 107.059 81.6648C106.928 82.3197 106.74 82.9606 106.497 83.58C106.07 84.7565 105.773 86.7845 106.211 88.987V88.999C106.716 91.5759 109.634 95.644 113.672 97.1078" stroke="black" stroke-width="5.14" stroke-miterlimit="10"/>
<path d="M99.0692 81.335C99.0692 81.335 98.4132 83.8281 98.4804 84.1958C98.5477 84.5634 99.3841 84.2796 99.3841 84.2796" stroke="black" stroke-width="5.14" stroke-miterlimit="10"/>
<path d="M99.52 86.5618C100.771 87.2663 102.221 86.8217 102.789 85.6436" stroke="black" stroke-width="5.14" stroke-miterlimit="10"/>
<path d="M104.814 83.7637C105.891 82.5749 105.816 80.6796 104.649 79.5301C103.481 78.3807 101.662 78.4126 100.586 79.6013C99.5092 80.79 99.5835 82.6856 100.751 83.835C101.919 84.9843 103.738 84.9525 104.814 83.7637Z" stroke="black" stroke-width="5.14" stroke-miterlimit="10"/>
<path d="M97.5526 83.0704C98.629 81.8817 98.5547 79.9862 97.387 78.8367C96.2191 77.6873 94.4001 77.7193 93.3239 78.908C92.2476 80.0968 92.3217 81.9922 93.4895 83.1417C94.6572 84.2911 96.4765 84.2591 97.5526 83.0704Z" stroke="black" stroke-width="5.14" stroke-miterlimit="10"/>
<path d="M95.3774 78.9083C95.4381 78.9083 95.5004 78.9082 95.5627 78.9168C96.0954 78.9695 96.5875 79.2355 96.9357 79.6593C97.2839 80.0828 97.4607 80.6307 97.429 81.1877C97.4 81.6995 97.1835 82.1802 96.8242 82.5302C96.465 82.8804 95.9904 83.0731 95.4987 83.0687C95.4363 83.0687 95.3739 83.0653 95.3118 83.0584C94.7793 83.0063 94.2871 82.7404 93.9388 82.3171C93.5906 81.8937 93.4138 81.346 93.4455 80.7893C93.4742 80.2769 93.6906 79.7959 94.0505 79.4457C94.4101 79.0955 94.8852 78.903 95.3774 78.9083ZM95.3774 78.4688C94.7794 78.4657 94.2028 78.7008 93.7654 79.1261C93.328 79.5512 93.0628 80.1345 93.024 80.7568C92.9854 81.4281 93.1986 82.0887 93.6185 82.5991C94.0383 83.1097 94.6318 83.4302 95.2741 83.4928C95.3487 83.501 95.4236 83.5051 95.4987 83.5047C96.0952 83.5075 96.6702 83.2734 97.1069 82.85C97.5438 82.4266 97.8097 81.8457 97.8505 81.2253C97.889 80.554 97.6758 79.8934 97.256 79.3829C96.8362 78.8723 96.2426 78.5521 95.6004 78.4893C95.5263 78.4811 95.4518 78.4772 95.3774 78.4773V78.4688Z" fill="white"/>
<path d="M99.83 81.4069L98.3064 81.2607" stroke="black" stroke-width="5.14" stroke-miterlimit="10"/>
<path d="M102.638 79.5391C102.701 79.5393 102.765 79.5427 102.828 79.5494C103.376 79.6046 103.883 79.8787 104.241 80.3146C104.6 80.7503 104.783 81.3137 104.752 81.8869C104.721 82.4143 104.497 82.9092 104.127 83.2693C103.756 83.6296 103.267 83.8276 102.761 83.8227C102.699 83.8227 102.633 83.8227 102.571 83.8141C102.022 83.759 101.516 83.4846 101.157 83.0485C100.798 82.6123 100.616 82.0485 100.647 81.4748C100.678 80.9476 100.901 80.4528 101.272 80.0926C101.642 79.7323 102.131 79.5343 102.638 79.5391ZM102.638 79.0996C102.025 79.0966 101.434 79.3375 100.986 79.7732C100.538 80.2089 100.267 80.8066 100.227 81.444C100.186 82.1323 100.404 82.81 100.834 83.3338C101.264 83.8575 101.873 84.1862 102.531 84.2502C102.607 84.2584 102.684 84.2625 102.761 84.2621C103.374 84.2654 103.964 84.0244 104.412 83.5887C104.86 83.1528 105.132 82.5552 105.172 81.9177C105.212 81.231 104.996 80.5543 104.568 80.0309C104.139 79.5073 103.533 79.1778 102.876 79.1116C102.799 79.1034 102.723 79.0995 102.646 79.0996H102.638Z" fill="white"/>
<path d="M97.2522 82.7739C98.1755 81.7541 98.1119 80.128 97.11 79.1419C96.1083 78.1559 94.5477 78.1832 93.6244 79.2031C92.701 80.2229 92.7647 81.849 93.7665 82.8351C94.7683 83.8211 96.3289 83.7937 97.2522 82.7739Z" fill="white"/>
<path d="M104.524 83.4747C105.452 82.4501 105.388 80.8163 104.382 79.8257C103.375 78.8353 101.807 78.8628 100.88 79.8875C99.952 80.9121 100.016 82.5457 101.022 83.5363C102.029 84.5269 103.597 84.4993 104.524 83.4747Z" fill="white"/>
<path d="M101.75 98.6602L100.901 94.8349L99.9792 90.7119" stroke="black" stroke-width="5.14" stroke-miterlimit="10"/>
<path d="M155.8 163.652H10.2893" stroke="black" stroke-width="5.14" stroke-miterlimit="10"/>
</svg>
